
<svg width="512" height="512" xmlns="http://www.w3.org/2000/svg">
 <!-- Created with Method Draw - http://github.com/duopixel/Method-Draw/ -->

 <g>
  <title>background</title>
  <rect fill="#c5fad9" id="canvas_background" height="514" width="514" y="-1" x="-1"/>
  <g display="none" overflow="visible" y="0" x="0" height="100%" width="100%" id="canvasGrid">
   <rect fill="url(#gridpattern)" stroke-width="0" y="0" x="0" height="100%" width="100%"/>
  </g>
 </g>
 <g>
  <title>Layer 1</title>
  <g stroke="null" id="svg_23">
   <g stroke="null" transform="matrix(0.9152612478148209,0,0,0.9152612478148209,-1592.2824421031694,-1592.2692467298564) " id="svg_6">
    <path fill="#666666" stroke="null" id="svg_7" d="m2261.742618,1898.857301c-0.368,-4.271 -3.181,-7.94 -7.2,-9.403c-4.029,-1.472 -8.539,-0.47 -11.57,2.556l-62.015,62.011l-68.749,-21.768l-21.768,-68.748l62.016,-62.016c3.035,-3.032 4.025,-7.543 2.563,-11.565c-1.477,-4.03 -5.137,-6.837 -9.417,-7.207c-37.663,-3.245 -74.566,10.202 -101.247,36.887c-36.542,36.545 -46.219,89.911 -29.083,135.399c-1.873,1.578 -3.721,3.25 -5.544,5.053l-207.009,195.336c-0.073,0.071 -0.145,0.149 -0.224,0.219c-24.345,24.346 -24.345,63.959 0,88.309c24.349,24.344 63.672,24.048 88.013,-0.298c0.105,-0.098 0.201,-0.196 0.297,-0.305l193.632,-208.621c1.765,-1.773 3.404,-3.628 4.949,-5.532c45.5,17.167 98.9,7.513 135.474,-29.056c26.675,-26.687 40.131,-63.593 36.882,-101.251zm-402.429,318.763c-8.971,8.969 -23.5,8.963 -32.47,0c-8.967,-8.961 -8.967,-23.502 0,-32.466c8.97,-8.963 23.499,-8.963 32.47,0c8.967,8.964 8.967,23.505 0,32.466z"/>
   </g>
   <g stroke="null" transform="matrix(0.9152612478148209,0,0,0.9152612478148209,-1592.2824421031694,-1592.2692467298564) " id="svg_8"/>
   <g stroke="null" transform="matrix(0.9152612478148209,0,0,0.9152612478148209,-1592.2824421031694,-1592.2692467298564) " id="svg_9"/>
   <g stroke="null" transform="matrix(0.9152612478148209,0,0,0.9152612478148209,-1592.2824421031694,-1592.2692467298564) " id="svg_10"/>
   <g stroke="null" transform="matrix(0.9152612478148209,0,0,0.9152612478148209,-1592.2824421031694,-1592.2692467298564) " id="svg_11"/>
   <g stroke="null" transform="matrix(0.9152612478148209,0,0,0.9152612478148209,-1592.2824421031694,-1592.2692467298564) " id="svg_12"/>
   <g stroke="null" transform="matrix(0.9152612478148209,0,0,0.9152612478148209,-1592.2824421031694,-1592.2692467298564) " id="svg_13"/>
   <g stroke="null" transform="matrix(0.9152612478148209,0,0,0.9152612478148209,-1592.2824421031694,-1592.2692467298564) " id="svg_14"/>
   <g stroke="null" transform="matrix(0.9152612478148209,0,0,0.9152612478148209,-1592.2824421031694,-1592.2692467298564) " id="svg_15"/>
   <g stroke="null" transform="matrix(0.9152612478148209,0,0,0.9152612478148209,-1592.2824421031694,-1592.2692467298564) " id="svg_16"/>
   <g stroke="null" transform="matrix(0.9152612478148209,0,0,0.9152612478148209,-1592.2824421031694,-1592.2692467298564) " id="svg_17"/>
   <g stroke="null" transform="matrix(0.9152612478148209,0,0,0.9152612478148209,-1592.2824421031694,-1592.2692467298564) " id="svg_18"/>
   <g stroke="null" transform="matrix(0.9152612478148209,0,0,0.9152612478148209,-1592.2824421031694,-1592.2692467298564) " id="svg_19"/>
   <g stroke="null" transform="matrix(0.9152612478148209,0,0,0.9152612478148209,-1592.2824421031694,-1592.2692467298564) " id="svg_20"/>
   <g stroke="null" transform="matrix(0.9152612478148209,0,0,0.9152612478148209,-1592.2824421031694,-1592.2692467298564) " id="svg_21"/>
   <g stroke="null" transform="matrix(0.9152612478148209,0,0,0.9152612478148209,-1592.2824421031694,-1592.2692467298564) " id="svg_22"/>
  </g>
 </g>
</svg>