<?xml version="1.0" encoding="UTF-8" standalone="no"?>
<svg
   xmlns="http://www.w3.org/2000/svg"
   version="1.1"
   width="737.00787"
   height="403.78043"
   id="svg50832">
  <defs
     id="defs50834" />
  <g
     transform="translate(59.932396,-287.61506)"
     id="layer1">
    <g
       transform="matrix(10.526312,0,0,10.526312,-2939.5476,-4663.1775)"
       id="g50851">
      <path
         d="m 310.8439,471.70656 c -6.27095,5.8234 -18.85926,11.86443 -31.2523,11.74327 0,0 -1.24815,5.92289 -1.24815,5.92289 l 62.75068,0 1.13873,-5.43456 c 0,0 -40.97839,0.0346 -40.97839,0.0346 8.96136,-2.96047 13.90259,-7.93145 19.74456,-12.30084 0,0 -10.15513,0.0346 -10.15513,0.0346 0,0 0,0 0,0 z"
         id="path50426"
         style="fill:#a8a8a8;fill-opacity:1;fill-rule:nonzero;stroke:none" />
      <path
         d="m 340.44812,492.47301 c -20.10681,-0.88708 -29.89846,7.08392 -36.71345,14.86515 0,0 8.93723,0 8.93723,0 9.30515,-9.88931 21.05274,-9.81141 26.67584,-9.7768 0,0 1.10038,-5.08835 1.10038,-5.08835 0,0 0,0 0,0 z"
         id="path50428"
         style="fill:#a8a8a8;fill-opacity:1;fill-rule:nonzero;stroke:none" />
      <path
         d="m 281.04996,492.41673 -6.13996,10.35359 2.9828,0 1.2308,-2.24347 4.00041,0 0.25467,2.24347 2.79362,0 -1.66729,-10.35359 -3.45505,0 0,0 z m -0.82779,6.19244 2.18285,-4.12269 0.42904,4.12269 -2.61189,0 0,0 z m 6.9677,-6.19244 1.33713,10.35359 3.40755,0 5.6775,-10.35359 -2.9667,0 -3.97877,7.8159 -0.72326,-7.8159 -2.75345,0 0,0 z m 20.0827,0.25968 c -1.10031,-0.36354 -2.29163,-0.53601 -3.45139,-0.53601 -4.21729,0 -6.82296,2.25952 -6.82296,5.89268 0,3.15646 1.8824,4.8714 5.35912,4.8714 1.08246,0 2.22675,-0.13416 2.96551,-0.34686 0,0 0.46424,-0.12974 0.46424,-0.12974 l 1.22837,-5.71961 -4.29832,0 -0.42473,1.93927 1.63391,0 c 0,0 -0.42099,2.07463 -0.42099,2.07463 -0.40306,0.1075 -0.80982,0.1725 -1.21292,0.1725 -1.50158,0 -2.49691,-1.0688 -2.49691,-2.69279 0,-2.47715 1.6098,-4.00971 4.2334,-4.00971 0.9737,0 1.6098,0.14713 2.63293,0.61081 0,0 0.61074,-2.12658 0.61074,-2.12658 0,0 0,0 0,0 z"
         id="path50430"
         style="fill:#62af45;fill-opacity:1;fill-rule:nonzero;stroke:none" />
    </g>
  </g>
</svg>
